<?xml version="1.0" standalone="no"?>
<!DOCTYPE svg PUBLIC "-//W3C//DTD SVG 20010904//EN"
 "http://www.w3.org/TR/2001/REC-SVG-20010904/DTD/svg10.dtd">
<svg version="1.0" xmlns="http://www.w3.org/2000/svg"
 width="1280.000000pt" height="1150.000000pt" viewBox="0 0 1280.000000 1150.000000"
 preserveAspectRatio="xMidYMid meet">
<g transform="translate(0.000000,1150.000000) scale(0.100000,-0.100000)"
fill="#000000" stroke="none">
<path d="M6755 11490 c-33 -4 -109 -13 -170 -19 -302 -32 -1085 -166 -1320
-226 -267 -68 -647 -204 -954 -342 -255 -114 -401 -203 -439 -268 -12 -19 -25
-35 -29 -35 -4 0 -40 7 -78 15 -269 57 -1242 77 -1505 30 -521 -91 -1117 -377
-1262 -605 -36 -57 -114 -296 -134 -413 -13 -73 -13 -102 -4 -156 14 -80 64
-187 123 -261 41 -52 57 -62 228 -147 101 -51 212 -101 246 -112 117 -39 134
-56 119 -116 -10 -40 8 -60 79 -90 46 -20 65 -33 65 -46 0 -10 -23 -53 -51
-96 -96 -147 -239 -475 -314 -718 -63 -207 -57 -200 -181 -221 -245 -42 -596
-166 -638 -226 -21 -30 -20 -71 2 -91 33 -30 77 -38 247 -47 93 -4 178 -11
188 -15 34 -14 20 -43 -25 -55 -154 -40 -255 -80 -315 -126 -35 -27 -44 -54
-17 -54 16 0 327 131 409 172 75 38 108 87 69 102 -9 3 -66 6 -127 6 -153 0
-294 16 -337 39 -48 24 -51 55 -8 77 52 27 332 132 395 148 93 24 150 27 686
35 458 7 510 10 525 25 14 14 16 32 12 109 -10 203 -8 229 23 268 46 60 101
92 165 97 66 5 252 -25 432 -69 160 -39 302 -49 365 -25 136 53 138 176 4 300
-73 68 -155 108 -369 181 -345 117 -612 184 -982 244 -191 32 -238 45 -238 66
0 23 24 32 97 39 70 6 123 22 123 36 0 4 -30 13 -67 19 -242 42 -332 71 -528
167 -135 67 -197 113 -246 184 -47 69 -68 130 -82 247 -12 107 0 219 32 281
11 21 27 64 36 97 15 53 27 70 99 140 103 100 234 194 345 246 48 22 111 54
141 70 198 106 330 152 582 203 270 54 411 68 701 67 288 -1 676 -22 847 -47
337 -48 848 -229 1021 -362 80 -61 101 -72 136 -72 38 0 43 5 96 86 97 147
228 241 389 279 93 21 478 77 588 84 122 9 383 -4 630 -29 444 -46 717 -108
1055 -240 171 -67 260 -94 275 -85 23 14 9 60 -31 101 -78 80 -39 90 177 50
432 -81 570 -80 653 3 20 20 55 72 78 116 47 91 74 120 121 130 26 5 32 11 32
33 0 43 34 88 107 142 76 56 234 140 263 140 11 0 36 21 57 46 47 57 96 86
207 124 189 64 453 103 696 104 201 1 272 -9 446 -65 178 -57 202 -51 67 15
-163 80 -321 116 -519 116 -304 0 -610 -65 -853 -180 -57 -28 -112 -50 -123
-50 -11 0 -92 23 -181 50 -89 28 -279 80 -422 115 -143 36 -345 87 -450 114
-278 71 -526 110 -915 142 -177 15 -489 20 -565 9z m550 -90 c415 -27 656 -66
1075 -171 370 -94 517 -136 660 -191 149 -58 160 -71 88 -104 -65 -29 -103
-22 -250 44 -150 68 -203 86 -218 77 -21 -13 -8 -23 53 -38 65 -16 229 -83
272 -111 14 -9 25 -24 25 -33 0 -25 -67 -81 -113 -94 -23 -6 -52 -16 -64 -21
-12 -6 -41 -8 -65 -4 -60 9 -228 62 -324 101 -102 42 -169 60 -347 90 -303 51
-595 80 -912 90 -110 4 -236 14 -280 22 -144 27 -139 27 -212 -6 -93 -42 -130
-49 -374 -66 -342 -25 -550 -67 -948 -190 -314 -97 -626 -211 -831 -305 -110
-50 -156 -60 -178 -38 -19 19 -15 28 30 69 23 21 39 41 36 44 -3 3 -34 -6 -69
-21 -99 -41 -105 -43 -120 -34 -52 33 294 242 528 320 163 54 595 168 886 234
299 67 294 66 227 60 -93 -9 -491 -92 -698 -145 -364 -93 -558 -166 -832 -314
-207 -112 -245 -129 -264 -122 -33 13 -18 46 35 75 90 49 139 82 146 97 14 37
3 33 -191 -68 -91 -48 -136 -59 -136 -33 0 8 14 26 31 40 46 39 225 123 307
145 45 11 95 33 127 56 111 76 458 209 770 294 274 75 720 159 1100 205 172
21 262 30 500 49 97 8 384 6 530 -3z m-394 -415 c73 -13 165 -21 552 -45 220
-14 439 -42 646 -85 307 -63 609 -149 654 -186 l22 -17 -24 -72 c-34 -99 -71
-154 -123 -182 -61 -32 -182 -29 -413 10 -221 38 -385 57 -420 48 -19 -5 -31
-19 -45 -51 -11 -25 -25 -45 -31 -45 -6 0 -93 27 -193 59 -201 65 -372 110
-546 140 -694 123 -1427 95 -1779 -70 -121 -56 -154 -86 -326 -296 l-20 -25
-89 72 c-48 39 -124 89 -167 111 -87 43 -98 63 -54 97 26 20 608 217 935 316
350 106 663 159 955 160 178 1 193 3 240 25 66 31 116 50 135 51 8 0 49 -7 91
-15z m-4739 -2309 c262 -68 758 -231 877 -288 95 -45 205 -142 217 -192 26
-106 -104 -150 -316 -106 -58 12 -136 32 -175 46 -147 52 -174 57 -290 51
-169 -8 -247 -45 -291 -141 -31 -66 -30 -114 2 -249 22 -91 24 -111 13 -118
-17 -11 -624 -11 -737 0 -114 11 -121 19 -92 108 63 189 266 662 340 791 65
113 79 120 246 121 88 1 132 -4 206 -23z"/>
<path d="M6145 11283 c-199 -20 -944 -198 -1172 -279 -127 -45 -79 -44 95 2
349 93 600 154 756 184 265 51 349 69 359 79 12 12 -2 17 -38 14z"/>
<path d="M5948 11133 c6 -2 18 -2 25 0 6 3 1 5 -13 5 -14 0 -19 -2 -12 -5z"/>
<path d="M8340 11030 c100 -57 421 -220 433 -220 20 1 -59 46 -253 144 -184
93 -285 136 -180 76z"/>
<path d="M5644 11000 c-456 -96 -949 -260 -1019 -339 l-19 -22 24 9 c14 5 66
28 116 51 199 89 434 162 864 267 145 36 266 67 269 69 12 12 -70 0 -235 -35z"/>
<path d="M2213 8521 c-43 -31 -113 -131 -208 -298 -41 -71 -64 -103 -77 -103
-28 0 -23 30 28 178 47 139 54 196 11 102 -35 -79 -83 -233 -101 -325 -32
-171 -49 -316 -39 -326 19 -19 42 3 57 55 34 115 251 521 340 636 41 52 66 92
66 104 0 15 -41 3 -77 -23z"/>
<path d="M1690 8333 c-12 -31 -24 -71 -26 -88 l-5 -30 20 37 c21 36 45 127 37
135 -2 2 -14 -22 -26 -54z"/>
<path d="M1818 8324 c-27 -60 -98 -285 -98 -307 1 -19 26 45 80 201 53 154 62
205 18 106z"/>
<path d="M10049 11091 c-398 -87 -829 -433 -1065 -853 -176 -314 -227 -347
-570 -367 -246 -15 -495 8 -583 54 -16 8 -42 39 -59 69 -17 29 -44 63 -61 75
-71 51 -192 68 -224 33 -27 -30 -20 -50 38 -111 30 -32 55 -61 55 -64 0 -14
-47 -6 -95 17 -27 13 -106 61 -175 106 -243 159 -491 257 -845 332 -168 35
-426 49 -566 29 -182 -26 -414 -86 -530 -137 -65 -29 -89 -63 -89 -126 1 -49
15 -73 53 -87 41 -16 228 -38 502 -61 796 -66 1042 -120 1071 -234 22 -87
-132 -147 -450 -177 -333 -31 -1241 21 -1600 92 -144 28 -513 42 -926 36 -374
-6 -437 -13 -471 -58 -22 -29 -43 -111 -35 -137 8 -25 58 -47 178 -78 115 -29
176 -53 197 -77 21 -26 6 -62 -31 -78 -48 -20 -228 -16 -378 9 -223 38 -345
46 -695 46 -378 1 -476 -8 -617 -55 -126 -41 -193 -88 -217 -151 -28 -74 26
-139 173 -209 190 -90 413 -151 706 -194 310 -46 455 -80 686 -159 310 -106
575 -252 634 -349 42 -69 35 -165 -17 -227 -77 -92 -286 -135 -533 -111 -186
19 -521 68 -720 107 -207 41 -326 47 -375 22 -83 -44 -105 -120 -51 -177 15
-16 55 -43 87 -61 78 -41 114 -73 146 -127 31 -53 34 -112 10 -159 -28 -55
-117 -143 -194 -193 -93 -61 -260 -118 -468 -160 -206 -42 -361 -59 -625 -71
-124 -6 -254 -16 -290 -24 -36 -8 -105 -23 -155 -34 -49 -11 -122 -25 -162
-32 -39 -6 -80 -18 -90 -25 -16 -13 -11 -14 47 -15 87 0 226 23 335 57 87 27
97 27 345 29 206 1 283 5 400 23 321 48 583 125 700 205 92 63 196 171 216
223 46 120 -35 254 -216 359 -44 25 -80 51 -80 59 0 7 22 33 50 59 55 51 74
55 154 31 108 -33 563 -112 806 -139 339 -39 584 -4 700 100 59 54 84 106 84
179 0 74 -18 111 -88 179 -132 128 -410 262 -750 360 -185 54 -400 97 -650
131 -181 25 -226 36 -226 54 0 11 43 74 88 131 69 85 293 319 311 325 11 3
124 -8 252 -24 521 -66 637 -70 728 -23 107 56 -16 185 -215 226 -83 18 -121
33 -128 53 -8 21 0 31 42 49 20 8 46 26 57 39 30 37 111 46 441 52 394 7 702
-11 984 -57 351 -58 450 -65 1015 -65 449 0 547 3 643 18 167 25 231 58 267
137 23 52 14 85 -40 137 -90 86 -276 123 -880 173 -413 34 -578 57 -652 90
-35 15 -43 24 -43 45 0 42 44 72 161 110 261 84 552 121 765 96 402 -47 741
-171 1108 -404 139 -89 257 -117 341 -81 35 14 41 14 84 -4 106 -45 313 -67
575 -59 196 6 273 17 378 56 120 46 168 97 260 275 328 636 937 1001 1469 880
92 -21 152 -46 184 -78 60 -60 19 -92 -233 -181 -99 -34 -217 -79 -263 -100
-46 -20 -91 -39 -99 -41 -9 -3 -49 22 -95 61 -101 84 -206 138 -261 133 -60
-5 -58 -33 3 -59 78 -35 263 -149 263 -164 0 -7 -42 -50 -92 -95 -51 -45 -121
-114 -156 -153 -72 -83 -145 -222 -163 -312 -12 -64 -6 -193 11 -225 22 -42
180 -110 254 -110 48 0 94 -19 101 -41 16 -50 -54 -96 -175 -119 -121 -22
-205 -82 -180 -130 15 -27 61 -47 131 -56 85 -10 99 -23 99 -93 0 -53 4 -64
35 -101 19 -23 35 -52 35 -63 0 -36 -47 -218 -59 -230 -8 -8 -94 -14 -269 -18
-280 -7 -313 -13 -517 -82 -149 -51 -242 -90 -427 -178 -207 -99 -258 -111
-349 -81 -35 11 -100 36 -144 56 -56 24 -106 38 -169 46 -98 12 -134 26 -165
66 -28 35 -26 73 4 114 54 73 25 138 -83 188 -51 24 -70 27 -175 28 -136 2
-146 7 -188 95 -23 50 -23 51 -4 65 10 8 32 14 47 14 66 0 116 52 102 105 -22
88 -296 225 -449 225 -171 0 -385 -103 -385 -186 0 -33 38 -70 86 -84 22 -6
48 -18 59 -26 16 -12 17 -17 7 -32 -35 -49 -24 -73 38 -84 70 -12 91 -44 46
-73 -21 -14 -30 -14 -92 0 -38 8 -98 24 -134 35 -36 12 -96 23 -135 26 -93 7
-124 -12 -165 -99 -35 -74 -36 -86 -10 -120 53 -67 64 -138 25 -163 -22 -15
-49 -16 -233 -9 -114 4 -218 11 -230 16 -13 5 -70 49 -125 98 -219 192 -373
289 -517 327 -44 12 -104 18 -185 18 -106 0 -129 -3 -200 -28 -196 -68 -290
-162 -327 -325 -27 -122 36 -295 152 -412 90 -91 142 -114 250 -113 137 1 246
58 325 168 44 61 61 72 81 55 17 -14 171 -264 208 -336 20 -41 23 -54 13 -66
-18 -24 -144 -57 -591 -156 -949 -212 -1153 -251 -1302 -251 -84 0 -112 -4
-143 -19 -67 -35 -139 -118 -186 -216 -51 -107 -68 -174 -69 -275 -1 -146 67
-233 260 -326 62 -30 117 -61 124 -69 34 -41 -21 -62 -270 -100 -91 -14 -221
-37 -290 -51 -107 -22 -141 -25 -235 -19 -132 7 -183 -5 -276 -67 -81 -54
-228 -199 -263 -259 -41 -72 -67 -188 -69 -314 -1 -104 1 -114 31 -178 48
-104 118 -196 161 -214 20 -8 55 -23 77 -34 54 -25 445 -124 571 -145 119 -18
191 -49 227 -97 42 -56 218 -167 455 -290 35 -17 37 -35 6 -47 -45 -17 -341
-38 -860 -60 -764 -33 -1047 -51 -1097 -71 -61 -25 -40 -108 54 -216 30 -34
60 -75 67 -90 7 -15 18 -39 25 -53 17 -36 82 -82 309 -218 257 -153 327 -199
327 -212 0 -23 -44 -5 -220 91 -261 141 -385 191 -404 161 -10 -16 37 -47 122
-82 223 -93 673 -345 1317 -738 176 -107 480 -292 675 -410 493 -299 540 -332
476 -332 -55 0 -131 42 -561 310 -931 580 -1868 1110 -1961 1110 -27 0 -34 -4
-34 -20 0 -23 61 -61 145 -90 192 -66 1035 -559 2035 -1190 146 -92 307 -191
358 -220 86 -48 113 -72 99 -87 -18 -17 -315 143 -694 373 -773 470 -1554 928
-1783 1045 -82 42 -143 58 -154 41 -9 -16 46 -53 164 -112 270 -135 954 -531
1242 -721 70 -45 52 -67 -23 -29 -21 11 -108 62 -192 114 -223 136 -792 453
-1016 566 -66 34 -121 54 -150 57 l-46 4 34 -30 c18 -16 169 -99 335 -184 445
-228 836 -459 853 -504 9 -24 -7 -28 -40 -9 -194 112 -443 246 -682 366 -293
148 -447 216 -466 204 -15 -9 27 -50 88 -85 51 -29 67 -49 41 -49 -7 1 -40 7
-73 15 -33 8 -73 15 -89 15 -28 0 -29 0 -11 -20 28 -31 138 -91 550 -303 508
-260 666 -351 932 -535 122 -84 161 -117 151 -128 -9 -8 -88 34 -331 178 -331
196 -417 243 -837 458 -212 108 -409 209 -437 225 l-53 27 -35 -30 c-43 -39
-90 -52 -182 -52 -59 0 -74 3 -81 18 -13 25 -148 481 -172 582 -27 113 -26
153 2 172 21 14 21 17 10 99 -32 223 -60 944 -43 1089 12 91 22 122 38 107 8
-9 16 -72 43 -352 40 -419 108 -812 189 -1100 62 -217 110 -325 147 -325 20 0
16 16 -99 410 -98 337 -151 681 -177 1160 -21 387 -8 1299 21 1485 6 39 9 82
7 95 -4 23 -5 22 -22 -15 -44 -100 -69 -310 -91 -780 -8 -181 -18 -353 -21
-382 -6 -55 -27 -94 -41 -80 -10 11 -7 297 7 552 15 307 23 550 17 544 -19
-17 -43 -403 -57 -909 -17 -591 1 -1139 48 -1471 9 -62 6 -79 -13 -79 -26 0
-88 199 -137 435 -33 162 -41 308 -21 380 7 25 13 201 17 465 3 234 9 495 12
580 4 85 4 153 1 150 -3 -3 -13 -194 -21 -425 -18 -455 -30 -637 -48 -729 -25
-129 39 -528 153 -951 50 -186 159 -532 195 -621 19 -47 34 -102 34 -123 0
-20 12 -61 26 -90 39 -77 108 -123 325 -216 453 -193 901 -424 1702 -876 519
-294 778 -459 880 -562 96 -98 152 -111 332 -82 50 8 179 26 288 40 109 14
213 32 232 39 26 11 41 28 62 71 31 62 52 68 65 18 10 -40 46 -53 149 -53 89
0 110 -14 47 -30 -207 -56 -386 -117 -438 -150 -32 -20 2 -19 101 4 397 93
1428 234 1949 266 225 14 1091 25 1192 16 53 -5 78 -12 82 -22 9 -24 -26 -81
-118 -193 -107 -132 -136 -186 -178 -336 -31 -113 -33 -129 -33 -285 0 -91 -4
-175 -8 -187 -5 -13 -31 -33 -63 -49 l-56 -27 -306 6 c-319 6 -775 30 -922 48
-163 20 -379 28 -1000 39 l-625 12 -185 85 c-231 107 -381 174 -490 220 -207
85 -454 223 -870 486 -398 252 -526 350 -805 617 -93 90 -204 190 -245 222
-41 32 -148 134 -237 226 -88 92 -165 164 -169 159 -13 -13 31 -91 102 -178
168 -210 449 -484 719 -703 192 -155 463 -388 686 -588 211 -189 384 -334 422
-354 27 -15 38 -4 14 15 -169 136 -360 309 -440 397 -37 41 -48 74 -24 74 6 0
84 -43 172 -95 287 -172 968 -501 1259 -610 55 -20 127 -41 159 -46 63 -10
137 -35 277 -93 107 -44 237 -76 500 -121 300 -53 393 -58 815 -51 769 13
1021 62 1660 324 149 61 326 131 394 157 322 119 575 240 755 358 61 41 145
91 186 113 156 81 415 298 715 598 247 248 416 456 632 781 179 269 285 455
578 1015 130 247 160 300 175 300 16 0 12 -24 -21 -127 -17 -54 -33 -105 -36
-113 -11 -38 67 120 127 260 72 167 105 258 97 267 -3 3 -26 -35 -50 -84 -50
-98 -73 -126 -83 -99 -7 19 21 107 85 269 120 301 129 511 32 713 -37 77 -42
84 -81 95 -32 10 -57 10 -116 1 -151 -24 -244 -96 -371 -290 -98 -148 -111
-147 -73 2 55 214 255 474 433 561 113 55 183 69 337 70 199 0 224 -16 275
-176 62 -197 71 -470 21 -684 -75 -321 -251 -846 -346 -1035 -18 -36 -47 -78
-65 -95 -25 -22 -37 -47 -49 -95 -21 -85 -125 -298 -219 -447 -41 -65 -122
-194 -180 -286 -58 -93 -148 -227 -199 -298 -174 -240 -190 -264 -225 -334
-30 -61 -65 -100 -256 -290 -350 -347 -715 -670 -928 -820 -273 -192 -478
-300 -859 -451 -135 -53 -311 -125 -393 -160 -303 -130 -804 -268 -1126 -309
-240 -31 -465 -46 -761 -52 -271 -5 -326 -3 -490 16 -240 28 -362 48 -660 110
-340 71 -447 98 -753 196 -695 222 -1043 381 -1582 726 -384 245 -632 457
-1155 986 -310 312 -370 384 -507 598 -52 83 -140 214 -194 292 -55 78 -117
179 -138 226 -96 206 -236 622 -295 872 -80 339 -135 603 -159 761 -9 55 -23
120 -31 145 -22 63 -20 121 5 153 11 14 29 26 39 26 35 0 30 18 -14 55 -71 58
-71 61 -69 475 3 403 16 731 39 917 16 138 18 253 5 253 -14 0 -38 -85 -55
-195 -26 -172 -46 -447 -56 -800 -5 -187 -15 -384 -21 -437 l-12 -96 33 -63
c34 -66 35 -80 6 -171 -14 -45 -14 -48 15 -108 32 -68 54 -147 64 -230 10 -86
153 -791 187 -925 17 -66 48 -164 70 -218 22 -55 42 -115 45 -135 8 -48 138
-318 221 -456 74 -124 211 -330 347 -521 74 -103 155 -194 392 -440 493 -510
719 -705 1148 -991 268 -180 433 -272 710 -399 236 -108 318 -150 373 -187 32
-22 75 -36 175 -58 73 -15 161 -40 194 -54 34 -14 97 -35 140 -47 43 -11 94
-31 113 -44 22 -14 57 -25 93 -28 58 -6 107 -28 107 -48 0 -7 -14 -8 -41 -4
-39 7 -40 6 -30 -14 32 -59 140 -86 311 -78 131 6 143 5 460 -51 219 -39 412
-59 700 -74 193 -10 275 -9 577 7 318 16 382 17 645 5 305 -14 570 -10 673 10
176 33 316 94 404 175 70 66 91 105 91 175 0 28 5 60 10 70 17 31 86 65 240
118 229 80 505 209 666 313 50 32 105 62 122 65 49 10 72 -21 235 -324 78
-143 131 -216 218 -296 183 -169 342 -256 574 -312 92 -22 303 -58 417 -71
125 -14 398 111 545 250 150 141 356 443 399 586 20 66 17 185 -6 275 -56 221
-191 339 -498 436 -142 45 -204 76 -279 144 -53 48 -103 132 -103 173 0 53 56
113 104 113 9 0 40 -22 71 -50 114 -103 193 -115 359 -56 181 65 278 151 366
326 109 216 189 576 176 790 -15 263 -80 607 -146 779 -17 44 -55 113 -86 155
-29 41 -54 80 -54 88 0 8 20 74 45 148 62 183 169 555 194 676 41 191 50 300
35 409 -28 197 -78 348 -135 406 -20 20 -63 47 -95 60 -53 21 -75 24 -204 23
-128 0 -155 -4 -233 -27 -105 -32 -183 -70 -255 -125 -180 -135 -344 -447
-386 -733 -20 -134 -20 -190 0 -287 21 -104 47 -159 83 -180 17 -9 31 -23 31
-29 0 -38 120 -134 194 -154 35 -10 128 -101 148 -145 9 -19 -15 -70 -157
-341 -282 -535 -399 -738 -454 -788 -27 -23 -44 -23 -295 4 -458 51 -1001 73
-1731 74 -562 0 -771 -7 -1160 -38 -405 -32 -460 -30 -460 20 0 16 8 21 43 23
35 3 45 8 52 27 17 46 65 56 380 80 368 27 617 35 1116 35 821 0 1492 -36
1849 -100 130 -24 135 -24 135 -6 0 21 -25 37 -95 60 -36 12 -65 26 -65 31 0
6 25 12 57 15 60 5 78 21 43 40 -33 18 -224 30 -495 31 -137 0 -272 4 -300 8
l-50 7 35 7 c54 11 344 27 557 32 106 2 201 9 211 14 11 6 25 23 31 40 11 24
10 34 -4 62 l-17 33 33 27 c42 34 34 46 -54 74 -95 31 -83 75 21 75 53 0 71
14 41 31 -29 15 -216 15 -395 -1 -68 -7 -128 -9 -134 -5 -33 20 27 35 280 71
243 34 300 48 300 75 0 18 -47 18 -213 -1 -98 -11 -198 -20 -224 -20 -46 1
-47 1 -23 14 34 19 275 73 388 87 l92 12 0 41 c0 27 12 68 36 116 23 49 34 84
30 100 -6 34 0 42 61 75 105 56 116 95 39 140 -68 40 -377 155 -733 274 -364
121 -413 139 -413 153 0 16 61 35 290 88 579 133 730 176 716 199 -21 33 -261
15 -530 -40 -587 -120 -1689 -439 -1931 -559 -55 -27 -102 -47 -106 -44 -16
10 -51 115 -45 138 9 35 45 48 323 122 361 95 562 151 888 249 405 121 554
157 835 205 135 22 262 45 283 51 35 9 49 31 27 44 -17 10 -11 40 15 75 14 19
25 40 25 47 0 7 -16 33 -35 59 -19 25 -35 50 -35 56 0 6 -11 25 -24 42 -50 66
-58 95 -66 233 -5 73 -14 148 -21 167 -11 29 -10 38 4 60 9 14 17 40 17 59 0
23 8 41 25 57 18 17 25 34 25 62 0 86 80 221 219 370 85 90 108 125 94 139
-17 17 -147 38 -393 64 -542 56 -646 68 -669 77 -39 14 -12 29 76 40 137 18
178 30 178 53 0 15 -22 31 -86 65 -47 25 -100 55 -117 68 -45 33 -93 107 -99
152 -8 60 23 62 134 12 113 -52 175 -69 309 -87 221 -30 543 -13 759 40 142
34 341 98 400 128 76 38 190 131 251 206 89 107 118 240 118 531 0 172 -2 191
-28 275 -15 50 -58 156 -96 237 -39 80 -70 150 -70 154 0 4 -51 111 -112 238
-112 229 -113 232 -116 312 -4 86 18 268 43 351 28 94 82 150 152 160 105 14
193 -69 318 -302 115 -214 160 -265 271 -309 123 -50 125 -29 6 88 -48 47
-102 110 -119 139 -44 73 -127 329 -154 471 -18 100 -26 122 -47 140 -61 50
-121 104 -174 155 l-58 55 -134 -12 c-181 -16 -284 -49 -393 -124 -71 -48 -94
-87 -104 -174 -10 -95 -16 -112 -38 -119 -32 -10 -67 12 -164 103 -52 49 -132
118 -178 154 -171 133 -421 288 -464 287 -27 0 21 -43 255 -227 276 -218 412
-336 545 -473 221 -228 303 -356 536 -838 186 -386 217 -467 229 -608 10 -108
-2 -346 -20 -430 -34 -148 -219 -367 -372 -438 -67 -32 -88 -32 -88 -2 0 13 5
28 12 35 17 17 -6 16 -113 -5 -137 -26 -133 1 8 56 134 53 153 79 44 62 -66
-11 -91 -7 -91 14 0 17 18 30 62 44 47 16 216 189 249 257 19 40 24 68 27 159
5 141 -5 192 -71 361 -30 77 -67 177 -82 224 -51 156 -104 238 -338 524 -294
359 -465 525 -927 897 -241 195 -306 239 -350 239 -42 0 -16 -29 115 -125 175
-128 407 -335 689 -614 350 -346 500 -566 553 -813 26 -126 2 -490 -41 -591
-19 -46 -37 -58 -100 -64 -69 -7 -101 11 -115 64 -5 21 -13 106 -16 188 -13
291 -40 358 -179 440 -83 49 -152 59 -324 46 -378 -29 -558 -108 -687 -301
-91 -138 -140 -293 -132 -419 4 -69 6 -75 42 -107 82 -76 22 -79 -597 -34
-441 33 -595 47 -609 56 -22 13 -4 46 75 135 143 163 373 357 496 419 117 59
339 112 524 125 181 13 200 38 244 320 11 72 37 186 58 255 61 209 67 242 54
345 -16 128 -46 260 -66 290 -9 14 -48 48 -87 77 -90 65 -127 105 -127 138 0
38 47 107 118 171 113 105 198 146 507 244 101 32 217 77 265 102 194 101 419
273 454 347 19 41 22 110 4 104 -7 -3 -32 -33 -56 -69 -130 -191 -360 -344
-632 -419 -280 -78 -571 -225 -633 -319 -70 -106 -76 -248 -13 -300 9 -8 16
-22 16 -32 0 -24 -39 -25 -85 -3 -43 20 -122 104 -131 139 -7 30 7 88 51 201
106 272 341 445 825 609 208 71 266 100 276 140 23 93 -51 171 -206 215 -110
32 -361 37 -481 11z m1873 -1043 c81 -35 228 -219 228 -286 0 -21 -4 -24 -27
-19 -16 2 -61 16 -100 31 -97 35 -139 33 -252 -12 l-94 -37 -29 -69 c-29 -71
-44 -96 -59 -96 -16 0 -10 39 23 151 l32 109 -18 50 c-23 64 -16 106 25 148
61 63 168 74 271 30z m-4292 -9 c72 -43 103 -89 61 -89 -29 0 -116 64 -119 88
-4 28 13 28 58 1z m2357 -554 c33 -23 36 -64 14 -159 -26 -108 -44 -144 -77
-152 -47 -12 -83 51 -84 143 0 21 -10 44 -27 63 -24 27 -37 32 -97 38 -72 7
-93 22 -56 42 68 36 287 53 327 25z m1601 -27 c2 -13 -4 -30 -12 -37 -13 -11
-16 -9 -22 13 -8 32 2 59 19 54 6 -3 13 -16 15 -30z m-4422 -42 c61 -16 144
-63 144 -81 0 -43 -234 -27 -354 24 -63 28 -68 59 -11 74 30 9 164 -2 221 -17z
m-4520 -127 c3 -6 -41 -82 -100 -169 -58 -86 -117 -183 -131 -214 -20 -46 -29
-56 -50 -56 -29 0 -45 26 -45 73 0 53 62 164 137 246 101 111 168 153 189 120z
m-200 -23 c3 -8 -12 -37 -33 -64 -21 -28 -66 -102 -100 -165 -80 -146 -86
-151 -125 -108 -34 38 -33 61 9 126 100 155 229 264 249 211z m-203 -19 c11
-29 -82 -186 -146 -245 -28 -26 -70 -27 -75 -1 -3 19 132 205 173 237 32 26
41 27 48 9z m-169 -23 c22 -8 20 -30 -9 -92 -44 -94 -107 -129 -140 -78 -15
22 -15 28 -1 53 16 30 79 94 111 111 24 14 20 13 39 6z m4926 -69 c0 -16 -64
-22 -74 -6 -9 14 5 21 41 21 23 0 33 -5 33 -15z m236 -19 c18 -14 18 -15 -7
-21 -35 -9 -71 -3 -76 12 -4 11 14 19 48 22 8 0 24 -5 35 -13z m-2174 -126
c74 -27 119 -68 158 -142 37 -71 83 -125 118 -139 38 -15 20 -34 -36 -37 -44
-3 -56 1 -77 22 -17 17 -25 36 -25 59 0 99 -154 197 -290 184 -57 -5 -112 -26
-181 -68 -22 -14 -42 -20 -53 -16 -16 7 -17 9 -4 30 23 35 106 93 157 110 66
23 169 21 233 -3z m1588 3 c64 -5 98 -13 140 -34 115 -58 308 -74 498 -43 129
22 290 24 326 5 35 -19 31 -51 -9 -70 -23 -11 -89 -16 -275 -19 -412 -7 -655
21 -807 95 -86 41 -85 91 2 78 22 -3 78 -8 125 -12z m-127 -132 c368 -97 932
-127 1112 -60 94 35 84 -1 -12 -46 -89 -43 -170 -55 -366 -55 -263 0 -509 32
-688 89 -91 30 -169 72 -169 91 0 13 -4 14 123 -19z m-1465 -28 c47 -35 72
-81 72 -135 0 -135 -146 -243 -267 -197 -98 37 -145 178 -88 262 59 85 211
123 283 70z m-415 -132 c5 -22 -11 -54 -24 -46 -5 4 -9 19 -9 36 0 33 25 41
33 10z m4517 0 c0 -15 -46 -44 -149 -95 -113 -57 -324 -184 -444 -267 -49 -35
-94 -59 -102 -55 -19 7 -29 49 -21 83 4 14 21 39 39 56 54 50 375 198 572 263
76 25 105 29 105 15z m270 -11 c13 -8 13 -11 0 -24 -19 -19 -90 -30 -110 -17
-25 17 11 36 90 50 3 0 12 -4 20 -9z m-160 -65 c-17 -20 -90 -39 -102 -27 -16
16 0 31 50 46 50 15 73 7 52 -19z m-3508 1 c13 -29 5 -56 -16 -56 -20 0 -39
36 -31 60 9 27 33 25 47 -4z m1378 -26 c93 -12 110 -18 110 -35 0 -22 -61 -28
-189 -21 -183 10 -351 43 -351 68 0 13 303 4 430 -12z m-1145 -21 c8 -25 -2
-56 -20 -63 -18 -7 -45 20 -45 44 0 45 52 60 65 19z m-230 -95 c61 -40 134
-97 163 -128 80 -84 332 -243 489 -310 125 -52 425 -119 683 -152 293 -37 616
12 937 142 48 19 113 41 146 50 34 8 132 49 219 90 150 70 215 90 206 62 -9
-30 -242 -165 -430 -250 -148 -66 -349 -133 -468 -155 -76 -13 -153 -17 -380
-17 -326 0 -439 10 -637 59 -315 77 -516 176 -743 366 -110 92 -360 328 -360
340 0 14 51 -14 175 -97z m603 73 c6 -28 -17 -47 -55 -47 -39 0 -102 -26 -104
-44 -1 -6 -2 -22 -3 -36 -1 -18 -7 -26 -24 -28 -51 -7 -96 52 -73 96 30 57
250 107 259 59z m2727 14 c9 -15 -45 -51 -77 -51 -39 0 -33 19 13 42 38 20 55
22 64 9z m-4363 -60 c101 -77 121 -84 205 -78 79 6 162 38 215 82 52 44 75 26
43 -35 -51 -100 -278 -156 -398 -100 -53 25 -157 131 -157 161 0 30 24 23 92
-30z m6097 27 c77 -28 164 -141 164 -212 0 -80 -41 -112 -81 -61 -13 16 -47
34 -97 50 -42 14 -91 33 -108 42 -73 38 -280 2 -414 -73 -34 -19 -73 -34 -87
-34 -33 0 -57 34 -49 71 4 21 2 29 -9 29 -38 0 -104 -123 -139 -258 -19 -74
-26 -217 -11 -237 4 -6 25 -16 47 -23 53 -15 138 -69 132 -85 -3 -9 -37 -12
-122 -12 -112 1 -118 2 -137 25 -46 56 1 322 87 493 26 51 45 102 45 121 0 58
63 96 221 135 184 45 474 60 558 29z m-4269 -8 c0 -22 -71 -188 -102 -237 -23
-38 -56 -43 -83 -13 -37 41 -9 110 86 214 54 59 99 76 99 36z m1364 -16 c133
-33 231 -113 183 -149 -25 -18 -116 -27 -155 -16 -19 6 -52 21 -75 35 -54 32
-141 121 -133 135 10 16 107 13 180 -5z m-324 -29 c38 -20 60 -52 60 -90 0
-17 13 -50 30 -75 53 -79 28 -118 -45 -70 -58 38 -138 192 -122 235 8 19 40
19 77 0z m-789 -15 c23 -13 25 -43 4 -60 -18 -15 -45 -102 -45 -147 0 -26 6
-36 25 -45 30 -13 33 -43 6 -58 -34 -18 -78 -11 -110 16 -26 22 -31 33 -31 70
0 61 35 148 79 195 42 43 44 44 72 29z m272 -26 c41 -41 44 -63 11 -89 -25
-20 -27 -25 -21 -73 11 -91 -21 -139 -70 -106 -65 42 -72 208 -12 281 19 22
64 15 92 -13z m262 3 c8 -13 18 -39 21 -58 4 -18 19 -57 35 -85 31 -55 35 -83
19 -115 -21 -39 -108 -11 -146 46 -21 32 -31 167 -15 208 14 36 63 38 86 4z
m424 -82 c34 -40 42 -79 14 -73 -17 3 -83 82 -83 99 0 22 40 6 69 -26z m1001
11 c0 -17 -85 -96 -104 -96 -19 0 -28 14 -20 34 7 18 91 76 111 76 7 0 13 -6
13 -14z m-2192 -63 c-4 -34 -48 -67 -77 -58 -11 3 -21 11 -21 18 0 20 54 67
78 67 19 0 23 -4 20 -27z m4099 -35 c18 -5 45 -25 62 -43 44 -51 49 -105 20
-223 -43 -176 -23 -281 71 -365 59 -53 128 -77 221 -77 214 0 514 200 560 374
21 82 60 111 79 60 20 -52 -31 -289 -83 -391 -51 -98 -272 -202 -501 -234
-173 -24 -437 39 -565 135 -40 30 -77 35 -67 10 3 -9 6 -20 6 -24 0 -5 20 -34
45 -64 64 -78 63 -79 -32 -76 -29 1 -53 -1 -53 -5 0 -29 217 -74 365 -76 221
-2 234 -45 20 -66 -78 -8 -80 -9 -83 -36 -5 -43 -34 -51 -136 -38 -212 29
-406 127 -406 207 0 34 46 98 143 203 44 47 93 106 109 131 26 40 27 46 12 57
-9 6 -46 14 -82 18 -105 10 -112 12 -129 53 -12 27 -17 70 -17 157 -1 102 2
127 20 165 26 57 77 108 132 132 76 34 207 41 289 16z m-4193 -118 c132 -34
213 -80 139 -80 -60 0 -263 69 -263 90 0 15 38 12 124 -10z m1381 -9 c3 -5 -5
-17 -17 -26 -36 -25 -225 -82 -311 -94 -89 -12 -322 -14 -352 -2 l-20 8 20 6
c11 3 115 20 230 37 116 16 255 41 310 54 114 28 131 30 140 17z m3681 -118
c-15 -114 -80 -243 -122 -243 -27 0 -13 51 46 170 65 130 87 150 76 73z
m-4468 19 c67 -15 27 -27 -83 -25 -125 2 -186 12 -193 32 -4 12 16 13 119 7
68 -3 139 -10 157 -14z m-1324 -126 c61 -46 132 -93 158 -104 78 -34 86 -78
22 -122 -55 -37 -68 -63 -67 -136 1 -79 13 -100 101 -164 141 -105 307 -175
506 -215 66 -13 167 -35 223 -49 161 -39 301 -49 601 -43 304 6 394 19 507 71
131 61 202 146 190 229 -8 53 10 72 116 121 109 50 158 61 217 46 26 -6 172
-16 327 -20 257 -8 396 -19 439 -36 9 -3 16 -14 16 -25 0 -19 -26 -29 -114
-44 -45 -8 -239 -73 -421 -142 -164 -63 -361 -128 -583 -193 -190 -55 -269
-87 -254 -102 26 -26 452 101 935 278 251 93 383 134 431 134 17 0 55 11 84
25 29 13 83 33 120 45 37 11 73 24 81 29 42 27 -88 44 -504 66 -541 29 -548
30 -552 41 -5 15 154 152 184 160 13 4 60 -1 105 -10 121 -24 262 -41 748 -91
416 -43 530 -58 550 -70 23 -14 -10 -37 -113 -81 -168 -70 -570 -222 -1067
-404 -680 -248 -795 -296 -811 -337 -30 -77 -40 -92 -61 -99 -44 -13 -88 -56
-115 -112 -24 -49 -28 -70 -31 -174 -5 -134 8 -219 44 -290 27 -54 30 -83 9
-92 -25 -9 -186 14 -230 33 -96 43 -120 115 -113 346 5 139 8 157 40 250 l34
100 145 6 c79 4 145 7 147 8 9 4 -1 22 -17 31 -28 14 -64 21 -1056 210 -1316
250 -2782 542 -2818 561 -58 32 88 73 818 229 416 89 642 144 780 189 50 16
101 29 114 30 15 1 63 -29 135 -83z m5306 -82 l55 -35 90 6 c73 5 94 3 110 -9
l20 -16 -20 -16 c-29 -23 -250 -16 -289 9 -31 21 -51 59 -43 81 9 22 16 21 77
-20z m-76 -96 c47 -31 57 -33 146 -35 52 -1 98 -2 103 -2 4 -1 7 -6 7 -11 0
-28 -147 -52 -248 -40 -74 9 -102 30 -102 75 0 56 21 59 94 13z m-4380 -226
c35 -20 44 -40 22 -48 -15 -6 -181 70 -192 88 -21 34 86 9 170 -40z m-2783
-12 c329 -60 1429 -281 1764 -355 160 -35 502 -105 760 -155 760 -148 1109
-220 1124 -235 12 -12 12 -17 -2 -38 -17 -26 -91 -67 -120 -67 -24 0 -21 -18
5 -39 21 -18 21 -19 8 -133 -15 -134 -9 -277 14 -331 21 -48 9 -67 -43 -67
-67 0 -710 138 -755 162 -12 6 -37 24 -56 40 -19 15 -42 28 -52 28 -10 0 -41
22 -69 50 -50 49 -51 51 -45 94 4 25 16 57 28 71 17 22 19 29 7 36 -21 13 -93
11 -107 -3 -7 -7 -12 -40 -12 -78 0 -40 -5 -74 -14 -85 -13 -18 -14 -18 -47 1
-18 11 -42 35 -53 53 l-20 34 37 29 c30 24 37 37 37 64 0 42 -13 43 -64 4 -22
-17 -43 -30 -47 -30 -5 0 -22 21 -40 48 -33 49 -56 72 -72 72 -5 0 -6 -47 -2
-114 5 -84 4 -115 -5 -121 -22 -13 -40 20 -64 117 -28 112 -31 118 -57 118
-24 0 -49 -52 -75 -152 -10 -42 -22 -68 -30 -68 -8 0 -22 28 -34 68 -23 74
-20 92 22 145 33 40 15 53 -56 39 -43 -9 -75 -8 -146 4 -112 18 -124 13 -145
-61 -10 -31 -26 -61 -38 -70 -66 -46 -239 21 -281 110 -9 18 -14 40 -10 48 6
16 46 37 109 59 22 8 39 18 38 23 -1 6 -26 13 -55 17 -29 3 -74 9 -99 12 -52
7 -55 4 -79 -92 -15 -57 -45 -77 -110 -69 -28 3 -70 15 -95 26 -36 16 -45 25
-45 45 0 14 5 28 10 31 6 3 10 19 10 35 0 24 -5 31 -27 36 -16 3 -44 17 -64
31 -47 31 -161 52 -184 33 -17 -14 -21 -75 -5 -85 5 -3 23 1 39 10 35 17 54
12 75 -20 27 -42 21 -62 -22 -69 -21 -3 -47 -15 -57 -26 l-18 -20 -19 20 c-10
11 -22 20 -26 20 -75 5 -157 21 -171 34 -10 9 -34 16 -55 16 -27 0 -43 7 -60
25 -28 30 -36 31 -59 4 -27 -31 -41 -20 -93 67 -10 17 -12 17 -34 1 -43 -30
-69 -22 -90 26 -47 108 -51 247 -10 374 13 40 21 76 17 79 -4 4 -17 2 -30 -3
-42 -19 -59 -75 -72 -237 -10 -126 -15 -152 -30 -161 -35 -20 -55 -45 -55 -70
0 -42 -28 -30 -110 49 -63 60 -87 76 -121 83 -64 13 -71 32 -65 178 4 128 21
200 59 256 24 36 78 69 113 69 12 0 122 -18 245 -40z m4014 -5 c-1 -26 -170
-69 -415 -106 -120 -17 -170 -20 -290 -15 -206 9 -406 42 -430 71 -18 21 3 25
71 13 87 -16 612 -16 754 1 61 7 146 21 190 31 85 20 120 21 120 5z m2255 -70
c0 -22 -206 -115 -255 -115 -26 0 -16 25 16 44 50 30 192 86 217 86 13 0 22
-6 22 -15z m-3437 -129 c238 -58 318 -69 517 -69 182 0 270 10 468 54 133 30
172 31 172 3 0 -44 -164 -89 -390 -105 -321 -23 -789 29 -924 104 -38 21 -61
57 -36 57 6 0 93 -20 193 -44z m3357 -101 c0 -21 -136 -85 -865 -400 -751
-326 -735 -319 -735 -291 0 17 78 58 325 171 514 236 1216 535 1258 535 9 0
17 -7 17 -15z m-312 -27 c-6 -17 -59 -43 -226 -109 -152 -61 -182 -69 -182
-44 0 21 113 72 350 158 28 10 62 7 58 -5z m306 -77 c10 -15 -29 -40 -165
-104 -171 -82 -555 -236 -605 -244 l-39 -5 20 20 c26 26 370 181 675 303 105
42 107 43 114 30z m-746 -103 c-6 -20 -130 -82 -578 -289 -617 -286 -688 -313
-719 -276 -18 22 2 55 37 63 102 22 316 111 767 316 181 83 357 161 390 174
68 26 109 31 103 12z m787 3 c3 -5 -5 -17 -17 -26 -30 -20 -187 -70 -196 -61
-15 15 19 42 84 68 71 28 119 35 129 19z m-6235 -90 c-1 -16 -19 -33 -29 -27
-12 8 -15 49 -4 60 7 7 33 -20 33 -33z m6339 10 c30 -19 -11 -40 -187 -96
-324 -104 -841 -293 -1437 -525 -410 -160 -439 -170 -481 -170 -39 0 -74 38
-74 81 0 35 17 44 92 53 78 8 170 38 528 171 492 182 1140 396 1420 469 108
28 119 29 139 17z m-1359 -24 c0 -37 -691 -348 -796 -359 -38 -4 -40 16 -6 41
16 11 151 70 298 130 148 61 319 130 379 155 122 51 125 52 125 33z m-4756
-203 c188 -32 207 -69 50 -94 -109 -18 -164 -31 -164 -41 0 -12 -3 -12 199 12
281 34 365 25 901 -87 255 -53 678 -150 1221 -279 482 -115 521 -124 1077
-236 523 -105 590 -112 762 -80 238 46 681 163 1302 346 351 104 688 191 774
201 61 8 73 -6 27 -30 -47 -24 -367 -137 -848 -299 -464 -157 -567 -195 -530
-196 57 -2 260 60 762 233 613 211 720 253 725 289 3 23 13 26 188 67 52 12
136 38 185 58 83 33 98 36 195 37 105 0 150 -11 150 -38 0 -55 -480 -253
-1460 -600 -445 -158 -555 -189 -915 -263 l-180 -37 -155 12 c-173 13 -336 35
-1525 207 -448 65 -745 102 -735 91 3 -3 127 -26 275 -51 297 -50 342 -61 368
-84 26 -23 21 -50 -21 -106 -22 -28 -46 -65 -55 -83 -23 -43 -54 -163 -67
-258 -27 -198 -40 -230 -97 -241 -26 -5 -36 -2 -57 21 -26 28 -46 26 -46 -5 0
-11 11 -54 25 -97 28 -90 30 -103 12 -103 -7 0 -33 39 -58 87 -65 129 -92 122
-47 -12 16 -51 18 -69 9 -78 -19 -19 -43 3 -86 84 -41 75 -69 96 -87 65 -13
-23 -31 -20 -58 9 -45 48 -53 23 -20 -63 11 -29 18 -57 15 -63 -29 -45 -115
75 -139 193 -6 32 -16 58 -21 56 -15 -4 -9 -85 11 -150 18 -60 14 -88 -11 -88
-16 0 -47 45 -88 130 -60 125 -113 129 -71 7 9 -26 13 -55 10 -64 -6 -14 -8
-14 -25 1 -10 9 -31 41 -46 72 -33 65 -61 87 -107 82 l-33 -3 -3 -65 c-6 -125
-47 -97 -107 73 -24 69 -39 60 -30 -18 7 -70 1 -105 -19 -105 -15 0 -38 49
-66 143 -35 114 -90 157 -200 157 -54 0 -70 -13 -70 -54 0 -17 -5 -38 -10 -46
-8 -12 -14 -9 -37 18 -28 33 -101 60 -124 46 -6 -3 -9 -27 -7 -53 3 -40 1 -46
-17 -46 -13 0 -26 12 -37 36 -18 38 -56 59 -106 59 -24 0 -24 -2 -17 -42 22
-126 4 -139 -50 -37 -48 92 -62 109 -87 109 -10 0 -29 11 -42 25 -13 14 -27
25 -31 25 -4 0 -5 -38 -1 -85 5 -69 3 -85 -8 -85 -20 0 -32 19 -50 79 -18 62
-29 72 -68 64 -34 -7 -58 11 -58 43 0 30 -34 45 -82 38 -59 -10 -102 16 -137
83 -18 33 -46 77 -63 98 l-32 38 -18 -23 c-29 -36 -23 -67 16 -80 50 -16 64
-38 76 -116 13 -90 12 -94 -3 -94 -8 0 -22 18 -32 40 -19 42 -41 67 -51 57 -3
-3 1 -30 10 -60 20 -70 21 -107 1 -107 -30 0 -74 91 -89 182 -7 37 -24 52 -46
38 -16 -10 -9 -68 16 -131 10 -27 15 -53 10 -65 -7 -18 -8 -18 -26 4 -10 12
-26 46 -36 75 -9 28 -37 92 -63 142 -46 89 -46 90 -46 190 1 126 25 235 76
342 21 45 39 88 39 97 0 17 -51 62 -81 71 -32 10 -68 -22 -105 -93 -42 -83
-54 -150 -54 -302 0 -229 -14 -287 -59 -246 -10 9 -21 16 -24 16 -12 0 -8 -55
8 -106 37 -121 2 -128 -56 -11 -57 113 -58 114 -86 80 -21 -26 -24 -27 -37
-11 -46 60 -19 411 50 660 17 62 17 69 2 84 -14 15 -19 15 -52 -1 -147 -70
-205 -331 -146 -663 33 -187 18 -240 -39 -140 -50 88 -66 177 -66 383 0 194
10 260 51 332 42 73 24 87 -34 26 -68 -73 -75 -102 -83 -353 -4 -124 -7 -226
-8 -227 -5 -12 -30 2 -39 21 -7 17 -25 29 -51 36 -22 6 -43 15 -46 20 -3 6
-11 10 -17 10 -8 0 -9 -31 -4 -100 6 -83 5 -100 -7 -100 -19 0 -54 95 -71 193
-7 43 -19 84 -26 90 -10 10 -11 -13 -6 -113 3 -69 2 -131 -3 -139 -18 -28 -40
-1 -61 71 -53 182 -74 210 -69 93 6 -125 -35 -105 -71 34 -21 81 -33 101 -88
140 -50 37 -56 56 -42 129 26 123 122 268 222 335 128 85 260 100 469 54 201
-45 1087 -198 1134 -196 62 2 -353 84 -705 139 -298 47 -389 67 -397 87 -8 21
10 30 80 38 86 9 393 88 512 130 91 33 107 35 175 30 41 -3 115 -13 164 -21z
m4312 -232 c-8 -13 -237 -125 -303 -148 -42 -15 -56 -16 -78 -6 -19 9 -25 18
-23 35 3 18 20 28 113 59 239 80 313 95 291 60z m-4624 -267 c-5 -30 -31 -65
-47 -65 -19 0 -19 14 1 56 18 38 52 44 46 9z m7133 -95 c0 -22 -67 -51 -480
-210 -489 -188 -711 -270 -730 -270 -34 0 2 25 109 75 177 83 752 312 1041
413 38 14 60 11 60 -8z m-83 -145 c2 -16 -106 -64 -292 -130 -230 -82 -220
-80 -220 -61 0 23 185 102 410 177 87 29 101 31 102 14z m-672 -25 c0 -30
-593 -278 -906 -380 -151 -49 -204 -59 -204 -41 0 11 71 40 305 127 99 37 247
96 330 131 356 153 475 194 475 163z m704 -79 c12 -19 -8 -40 -62 -64 -174
-78 -1337 -448 -1732 -551 -370 -97 -518 -125 -508 -95 3 8 49 25 114 42 632
162 1159 325 1767 546 344 125 408 144 421 122z m-3768 -63 c42 -19 40 -38
-10 -90 -51 -54 -87 -151 -136 -368 -16 -74 -34 -145 -40 -157 -12 -29 -33
-29 -94 2 -27 14 -63 25 -80 25 -18 0 -42 7 -55 16 -23 16 -23 20 -17 119 17
253 80 394 200 452 44 21 61 24 128 20 42 -3 89 -11 104 -19z m684 -84 c224
-32 532 -90 576 -109 19 -8 34 -21 34 -30 0 -9 -13 -47 -29 -85 -39 -90 -83
-269 -111 -445 -24 -148 -23 -181 11 -383 13 -76 7 -98 -23 -87 -20 8 -49 78
-93 227 -62 213 -101 266 -93 130 2 -40 -1 -67 -7 -69 -6 -2 -26 28 -45 67
-33 68 -70 116 -70 91 0 -25 -32 -23 -60 4 -17 16 -33 25 -37 21 -10 -10 11
-113 51 -246 18 -63 31 -120 29 -128 -11 -27 -41 19 -87 136 -56 140 -88 204
-104 210 -18 6 -15 -24 14 -121 19 -65 23 -92 15 -100 -17 -17 -34 7 -65 88
-30 81 -53 118 -67 109 -12 -7 -7 -33 33 -187 26 -94 29 -120 19 -130 -27 -26
-53 32 -126 276 -14 48 -30 87 -35 87 -17 0 -11 -100 11 -190 20 -86 19 -130
-4 -130 -38 1 -61 53 -77 170 -16 123 -31 200 -40 200 -4 0 -11 -29 -15 -64
-12 -112 -49 -106 -80 14 -18 70 -33 96 -47 82 -5 -5 4 -73 22 -161 34 -174
36 -199 15 -208 -21 -7 -36 14 -69 99 -73 189 -93 342 -60 477 8 36 45 126 81
198 67 136 121 207 165 216 39 9 184 -3 368 -29z m-540 11 c16 -19 8 -49 -45
-165 -43 -96 -96 -255 -136 -407 -12 -46 -25 -83 -29 -83 -13 0 -19 143 -10
242 19 193 78 356 148 403 42 29 55 31 72 10z m3647 -1 c4 -10 -1 -22 -11 -30
-23 -16 -430 -151 -731 -243 -1030 -312 -1593 -454 -1621 -410 -11 18 21 37
80 47 28 6 93 17 143 26 215 38 1023 275 1654 485 212 71 394 131 405 134 42
10 75 7 81 -9z m17 -110 c25 -9 19 -32 -12 -48 -15 -8 -84 -30 -153 -50 -128
-36 -220 -64 -694 -211 -356 -110 -562 -167 -956 -265 -415 -103 -584 -130
-584 -95 0 11 36 21 420 114 465 113 796 206 1465 412 195 61 387 118 425 129
39 10 71 19 72 19 1 1 8 -2 17 -5z m-2055 -53 c11 -7 9 -12 -10 -24 -38 -25
-118 -42 -132 -28 -15 15 0 29 49 46 46 16 74 18 93 6z m141 -58 c0 -14 -34
-43 -52 -43 -23 0 -24 26 0 39 19 12 52 14 52 4z m-5290 -58 c42 -42 51 -58
42 -67 -18 -18 -57 8 -92 62 -17 26 -30 50 -30 53 0 20 32 1 80 -48z m7210 30
c17 -21 6 -43 -27 -51 -46 -10 -251 -67 -563 -157 -660 -191 -1522 -410 -1735
-441 -43 -6 -77 7 -60 22 13 12 96 34 310 81 220 49 413 98 785 201 257 71
399 114 950 281 253 77 319 90 340 64z m-2285 -84 c0 -17 -57 -39 -102 -40
-38 -1 -43 13 -11 30 55 30 113 35 113 10z m-3388 -10 c48 -22 65 -49 61 -94
-4 -38 -38 -53 -38 -17 0 12 -5 30 -10 41 -11 20 -45 26 -55 9 -13 -20 -43
-10 -55 20 -25 60 16 77 97 41z m5683 -26 c0 -20 -27 -30 -123 -45 -71 -12
-100 -10 -84 6 3 3 34 17 69 30 75 27 138 32 138 9z m20 -90 c0 -9 -29 -23
-82 -40 -142 -45 -381 -105 -418 -105 -33 1 -34 1 -15 16 23 17 159 60 345
108 152 40 170 42 170 21z m1273 -32 c66 -59 107 -302 77 -464 -16 -87 -60
-199 -85 -215 -20 -13 -28 -12 -81 7 -149 55 -204 124 -212 262 -8 134 43 329
101 385 53 52 155 64 200 25z m-2188 -132 c-30 -29 -904 -270 -1181 -326 -129
-27 -194 -31 -194 -15 0 6 10 15 23 20 21 9 1097 284 1227 313 76 18 139 21
125 8z m254 -14 c14 -18 4 -27 -31 -27 -43 0 -35 36 8 39 6 1 17 -5 23 -12z
m-4085 -49 c21 -30 20 -48 -2 -48 -20 0 -46 45 -37 61 10 15 23 10 39 -13z
m-1159 -34 c55 -3 150 -14 210 -24 61 -10 159 -21 219 -24 136 -8 308 -37 409
-69 44 -14 144 -63 234 -115 87 -49 295 -163 463 -252 443 -235 470 -251 470
-272 0 -10 -16 -26 -39 -37 -92 -48 -245 -225 -336 -391 -25 -47 -55 -94 -65
-104 -19 -20 -20 -20 -41 0 -12 10 -24 15 -26 9 -22 -53 -60 -120 -68 -120 -5
0 -13 29 -16 65 -7 80 -33 162 -60 186 -27 25 -36 11 -50 -76 -13 -85 -23
-110 -45 -110 -19 0 -34 40 -34 93 0 90 -25 118 -35 40 -11 -88 -14 -95 -38
-91 -18 2 -25 15 -39 72 -9 38 -23 75 -31 83 -13 14 -17 12 -32 -11 -22 -33
-31 -27 -40 24 -8 47 -48 100 -76 100 -22 0 -35 21 -44 72 -9 47 -26 62 -71
60 -56 -2 -74 -17 -74 -63 0 -46 -14 -79 -34 -79 -17 0 -26 22 -26 61 0 35
-16 69 -32 69 -6 0 -21 -12 -34 -26 -30 -31 -40 -25 -54 29 -22 88 -44 111
-56 62 -11 -43 -29 -22 -34 41 -9 100 -27 109 -66 33 -14 -28 -29 -48 -34 -43
-4 5 -10 43 -12 86 -2 57 -8 81 -22 97 -25 28 -57 26 -86 -4 -30 -32 -42 -31
-78 5 -17 17 -37 30 -44 30 -18 0 -77 62 -118 125 -60 91 -88 115 -137 115
-42 0 -43 1 -43 33 0 23 -8 40 -25 55 -23 20 -25 29 -25 102 0 67 -3 81 -19
89 -10 6 -21 19 -24 30 -11 42 32 62 118 55 22 -2 85 -6 140 -10z m4960 -5 c0
-9 -31 -25 -84 -42 -79 -27 -111 -29 -111 -8 0 15 160 73 185 67 6 -2 10 -9
10 -17z m-5372 -29 c-1 -38 -25 -65 -47 -57 -21 8 -20 25 4 65 25 41 46 37 43
-8z m5135 -42 c-3 -7 -33 -23 -69 -36 -88 -32 -397 -112 -434 -112 -53 0 -8
25 115 65 252 81 397 112 388 83z m-5653 -68 c57 -24 171 -98 242 -155 104
-85 481 -329 832 -540 264 -158 1076 -719 1134 -783 12 -13 14 -22 8 -26 -6
-4 -124 -22 -263 -41 -536 -72 -690 -88 -853 -89 -159 -1 -160 -1 -234 31 -40
18 -150 74 -245 126 -94 52 -232 125 -306 162 -201 101 -371 198 -473 271
-132 95 -278 179 -564 327 -138 71 -266 141 -283 156 l-32 27 11 71 c14 91 14
220 1 228 -16 10 -111 -15 -117 -31 -2 -7 11 -42 31 -77 52 -93 47 -124 -26
-155 -16 -6 -28 -18 -28 -25 0 -16 107 -76 385 -215 260 -131 406 -215 634
-367 128 -85 270 -167 456 -263 296 -153 376 -197 490 -271 87 -57 128 -67
243 -57 89 8 366 42 742 92 348 45 456 52 539 30 71 -18 284 -140 278 -159 -9
-28 -260 -50 -1052 -93 -264 -14 -563 -26 -665 -27 l-185 -2 -50 37 c-28 20
-135 82 -239 138 -105 56 -267 149 -360 207 -422 262 -858 526 -1056 641 -767
446 -1094 644 -1098 667 -2 9 0 21 5 26 25 25 699 71 1298 89 357 11 459 19
590 50 105 24 154 24 210 0z m2789 -11 c30 -36 33 -54 9 -63 -26 -11 -67 26
-71 62 -3 26 0 32 16 32 11 0 32 -14 46 -31z m-2219 -9 c0 -13 -6 -25 -12 -27
-16 -6 -27 21 -19 43 9 23 31 11 31 -16z m-110 -25 c0 -32 -19 -45 -29 -19 -9
22 3 56 17 51 7 -2 12 -16 12 -32z m3823 -42 c33 -47 112 -211 112 -233 0 -70
-111 73 -150 193 -20 64 3 89 38 40z m-2002 -23 c361 -101 621 -196 829 -304
310 -161 726 -399 789 -453 38 -32 21 -34 471 77 778 192 962 220 1575 240
375 12 621 28 635 41 5 5 -74 9 -207 9 -119 0 -219 4 -222 9 -15 23 349 54
567 48 197 -5 268 -19 433 -88 80 -33 95 -51 60 -74 -29 -19 -122 -33 -686
-100 -649 -77 -936 -115 -1535 -200 -287 -41 -618 -84 -736 -95 -319 -30 -446
-48 -500 -71 -103 -45 -210 -192 -279 -382 -18 -47 -41 -98 -52 -112 -38 -49
-109 -24 -128 45 -6 22 -15 40 -20 40 -6 0 -10 -1 -11 -2 0 -2 -4 -54 -8 -116
-9 -127 -19 -149 -47 -106 -15 22 -19 49 -20 139 -1 83 -5 120 -18 148 -26 54
-76 63 -76 13 0 -13 -5 -37 -11 -55 -9 -24 -16 -31 -33 -29 -19 3 -21 9 -19
57 2 44 -1 57 -17 68 -24 17 -26 73 -5 152 38 144 121 242 270 318 l90 46 141
-77 c129 -69 184 -90 184 -68 0 19 -54 55 -202 136 -86 47 -160 86 -164 86 -4
0 -21 -15 -38 -34 -17 -18 -52 -41 -79 -51 -56 -20 -165 -122 -221 -205 -116
-177 -127 -439 -26 -596 22 -33 40 -68 40 -78 0 -26 -30 -31 -67 -10 -28 15
-44 39 -81 119 l-47 100 1 110 c0 128 22 221 84 352 64 136 142 233 220 273
19 10 43 27 54 39 17 19 17 21 2 27 -59 23 -180 -40 -292 -151 -58 -57 -77
-84 -102 -146 -47 -114 -82 -243 -97 -356 -15 -118 -27 -146 -58 -141 -40 6
-59 61 -54 158 13 246 223 586 425 687 39 20 72 40 72 44 0 19 -502 305 -770
439 -141 71 -164 86 -154 102 8 13 23 10 140 -22z m2738 10 c-14 -14 -220 -71
-361 -100 -113 -23 -156 -22 -134 4 15 18 106 43 281 76 156 30 231 37 214 20z
m-1086 -65 c16 -34 15 -45 -3 -45 -18 0 -49 45 -40 60 11 18 31 11 43 -15z
m3786 -83 c32 -99 33 -158 2 -146 -27 10 -60 162 -42 192 12 19 23 6 40 -46z
m-106 -24 c6 -7 13 -31 17 -53 10 -55 28 -86 89 -158 83 -98 95 -136 38 -122
-57 14 -160 133 -188 219 -13 40 -14 55 -5 87 12 40 30 49 49 27z m-6738 -87
c-1 -16 -19 -33 -29 -27 -12 8 -15 49 -4 60 7 7 33 -20 33 -33z m6984 7 c31
-42 106 -179 106 -195 0 -45 -72 41 -129 154 -37 73 -22 100 23 41z m190 -23
c17 -18 11 -45 -10 -45 -22 0 -64 30 -64 46 0 19 54 18 74 -1z m-4599 -60
c332 -79 830 -236 868 -274 35 -35 16 -47 -125 -81 -200 -48 -210 -47 -348 32
-63 36 -198 109 -300 163 -222 117 -320 173 -320 184 0 27 18 25 225 -24z
m3640 -310 c0 -5 -17 -11 -37 -13 -36 -3 -47 5 -31 22 11 10 68 3 68 -9z
m-186 -14 c23 -15 2 -31 -39 -31 -41 0 -62 16 -39 31 8 5 25 9 39 9 14 0 31
-4 39 -9z m-5144 -81 c7 -22 -11 -53 -26 -44 -5 3 -9 15 -9 28 0 39 24 50 35
16z m5260 1 c3 -5 1 -12 -4 -16 -35 -21 -1226 -170 -1308 -163 -154 13 323 89
1012 162 257 27 292 29 300 17z m-11 -110 c17 -27 -75 -49 -414 -95 -317 -43
-413 -54 -980 -111 -250 -25 -500 -52 -555 -59 -55 -7 -104 -10 -109 -6 -18
17 43 39 144 54 100 14 195 25 845 96 328 36 806 95 920 114 98 17 142 19 149
7z m1450 -34 c9 -15 7 -21 -8 -32 -35 -26 -74 13 -44 43 16 16 38 12 52 -11z
m-2884 -27 c47 -29 -71 -49 -830 -140 -666 -79 -836 -93 -828 -68 6 17 41 25
233 53 205 30 1140 142 1280 154 55 4 107 9 115 9 8 1 22 -3 30 -8z m2826
-159 c77 -277 140 -439 198 -510 55 -67 66 -102 73 -236 7 -156 -25 -347 -67
-397 l-20 -23 -24 29 -24 29 -32 -44 c-17 -24 -41 -62 -52 -84 -41 -79 -100
-165 -114 -165 -24 0 -16 35 47 205 34 91 59 168 55 172 -3 3 -15 -2 -26 -12
-30 -27 -46 -7 -30 37 7 20 14 114 17 245 3 116 9 217 14 225 7 10 12 11 29 1
11 -7 22 -13 24 -13 13 0 -27 170 -88 379 -45 153 -52 196 -37 215 21 25 40 6
57 -53z m-9268 39 c32 -20 44 -50 19 -50 -8 0 -31 16 -53 35 -32 28 -35 34
-19 35 11 0 35 -9 53 -20z m7522 -5 c0 -11 -12 -15 -45 -15 -42 0 -54 7 -38
23 3 4 24 7 45 7 27 0 38 -4 38 -15z m-173 -22 c2 -6 -4 -14 -14 -17 -27 -8
-462 -53 -697 -71 -206 -16 -261 -15 -224 6 28 16 808 99 892 96 22 -1 41 -7
43 -14z m-7142 -98 c79 -46 98 -62 88 -77 -8 -14 -42 0 -125 50 -75 44 -98 72
-60 72 10 0 53 -20 97 -45z m5563 -30 c2 -2 1 -8 -3 -14 -8 -14 -82 -14 -90
-1 -13 21 74 35 93 15z m-264 -21 c34 -13 1 -24 -75 -24 -71 0 -100 10 -66 23
18 8 123 8 141 1z m2342 -16 c13 -21 -26 -35 -129 -47 -392 -43 -1600 -143
-2507 -206 -397 -28 -566 -47 -583 -64 -8 -8 21 -11 108 -11 81 0 116 -3 109
-10 -18 -18 -155 -41 -228 -38 l-71 3 1 60 c0 33 10 92 22 131 26 85 60 124
108 124 45 0 51 -16 14 -35 -16 -8 -30 -22 -30 -30 0 -18 25 -19 101 -5 114
20 753 70 900 70 65 0 98 -13 62 -24 -31 -9 -187 -25 -553 -56 -355 -30 -458
-42 -506 -60 -49 -19 -15 -31 74 -25 48 3 161 10 252 15 635 40 2134 160 2475
199 189 22 370 26 381 9z m-2606 -23 c0 -11 -12 -15 -50 -15 -38 0 -50 4 -50
15 0 11 12 15 50 15 38 0 50 -4 50 -15z m1195 6 c3 -5 2 -12 -2 -14 -30 -19
-499 -46 -566 -33 -79 15 -32 32 128 46 121 11 433 11 440 1z m-1436 -20 c20
-13 4 -31 -29 -31 -16 0 -32 5 -36 11 -7 12 13 29 36 29 8 0 21 -4 29 -9z
m4125 -98 c15 -35 39 -114 53 -175 24 -100 27 -134 27 -298 l1 -185 -46 -135
c-57 -167 -125 -313 -168 -362 -38 -43 -95 -63 -150 -53 -20 4 -65 23 -101 43
-51 28 -76 36 -115 36 -109 0 -246 -101 -304 -225 -44 -91 -64 -224 -58 -372
5 -140 15 -173 77 -258 79 -108 212 -210 399 -305 123 -63 182 -116 200 -180
6 -22 11 -103 11 -181 l0 -142 32 -3 c75 -7 27 -75 -76 -107 -100 -31 -242
-44 -414 -38 -196 6 -342 40 -496 116 -196 96 -308 216 -459 491 -19 36 -49
84 -67 108 -35 49 -51 49 -110 1 -37 -31 -60 -37 -60 -16 0 24 680 687 887
866 55 47 63 59 73 105 14 69 71 166 210 361 211 293 434 656 533 865 27 58
54 111 60 118 14 18 27 2 61 -75z m-9786 51 c26 -18 21 -34 -12 -34 -25 0 -46
17 -46 37 0 18 31 16 58 -3z m8513 -44 c24 -13 24 -26 1 -39 -42 -22 -376 -47
-1238 -91 -179 -9 -279 -3 -229 13 46 15 1234 122 1388 126 32 0 67 -4 78 -9z
m-7151 -92 c181 -96 301 -171 356 -220 29 -28 51 -54 48 -59 -7 -12 -56 14
-319 172 -267 160 -270 162 -261 177 9 15 45 0 176 -70z m-1675 -2 c119 -50
524 -253 700 -351 150 -84 340 -200 550 -337 72 -46 168 -105 215 -130 47 -25
240 -137 430 -248 327 -191 594 -332 723 -379 76 -28 91 -27 83 2 -3 12 -9 31
-12 42 -3 13 3 30 15 44 12 13 21 25 21 27 0 12 -57 52 -122 86 -43 22 -78 46
-78 54 0 22 20 17 116 -30 158 -76 186 -137 122 -259 -43 -80 -97 -137 -131
-137 -14 0 -53 20 -89 45 -150 105 -441 273 -1228 707 -875 483 -1098 603
-1340 720 -313 152 -293 141 -294 153 -2 17 86 35 159 31 53 -2 92 -12 160
-40z m1212 -253 c54 -31 280 -167 503 -303 523 -318 776 -460 962 -540 79 -34
113 -34 68 0 -35 27 -196 121 -403 236 -185 103 -237 137 -225 149 14 14 55
-5 293 -136 306 -167 402 -225 421 -255 22 -33 11 -89 -22 -111 -22 -14 -30
-15 -62 -3 -83 29 -1015 575 -1402 821 -209 132 -271 177 -278 198 -8 23 38 6
145 -56z m163 17 c38 -19 55 -50 27 -50 -17 0 -87 48 -87 60 0 15 17 12 60
-10z m3325 -106 c166 -109 221 -136 330 -164 105 -27 196 -27 220 0 25 27 97
27 149 -1 27 -14 68 -23 135 -28 78 -6 103 -12 128 -30 42 -31 99 -20 123 24
19 35 -11 31 480 66 251 18 356 20 595 16 278 -5 355 -13 378 -36 22 -22 -13
-36 -105 -41 l-92 -5 -27 -135 c-32 -165 -46 -217 -60 -226 -24 -14 -28 28
-22 204 4 128 3 182 -5 182 -14 0 -19 -16 -47 -157 -13 -64 -29 -121 -35 -127
-20 -20 -27 11 -18 77 5 34 6 68 3 75 -4 11 -41 13 -193 10 -253 -5 -254 -5
-287 -174 -19 -98 -40 -146 -62 -142 -22 4 -22 14 7 151 38 182 -1 182 -60 -1
-32 -95 -67 -172 -80 -172 -16 0 -16 15 1 88 26 105 25 178 0 192 -32 16 -45
13 -176 -50 -137 -66 -172 -96 -213 -180 -34 -68 -58 -80 -49 -24 3 22 9 54
13 73 l7 34 -61 -5 c-40 -3 -68 -10 -81 -22 -23 -21 -54 -99 -107 -268 -39
-127 -56 -160 -73 -142 -8 7 -1 50 24 149 49 195 45 306 -6 189 -11 -25 -26
-43 -32 -41 -6 2 -20 26 -32 54 -38 93 -44 98 -116 96 -78 -2 -215 -37 -242
-61 -10 -9 -28 -35 -39 -57 -50 -99 -114 -148 -161 -124 -12 7 -29 22 -39 34
-23 29 -72 49 -102 41 -21 -5 -26 -14 -31 -54 -14 -104 -61 -232 -85 -232 -15
0 -12 65 6 127 15 53 13 103 -6 103 -5 0 -11 -8 -15 -19 -3 -10 -14 -26 -25
-36 -33 -29 -50 -5 -50 71 0 58 -2 64 -23 69 -37 10 -77 -11 -92 -50 -8 -19
-28 -49 -44 -67 -36 -42 -70 -111 -106 -213 -51 -150 -64 -130 -35 55 13 77
20 143 18 146 -3 2 -65 -7 -137 -21 l-132 -26 -31 26 c-34 29 -64 26 -88 -8
-53 -79 -124 -122 -156 -96 -30 25 -36 63 -50 294 -18 316 -39 383 -164 521
-72 78 -78 88 -59 100 6 3 133 10 282 16 150 5 387 17 527 27 140 10 283 19
317 20 l62 1 146 -96z m-2483 15 c80 -41 443 -251 501 -291 57 -39 71 -58 42
-58 -45 0 -645 343 -645 369 0 25 23 20 102 -20z m1092 -5 c20 -8 20 -28 0
-48 -19 -20 -54 -5 -54 23 0 30 19 38 54 25z m-176 -34 c60 -27 153 -124 185
-192 45 -96 59 -188 55 -371 -3 -172 -9 -196 -62 -262 -22 -28 -28 -30 -99
-30 -89 0 -114 -16 -142 -93 -31 -82 -65 -142 -80 -142 -19 0 -19 20 2 93 14
51 15 73 5 170 -7 62 -16 177 -22 257 -15 230 -48 321 -172 474 -39 49 -66 92
-62 96 11 11 76 16 229 18 100 1 127 -2 163 -18z m-470 -82 c17 -17 15 -48 -4
-48 -27 0 -54 20 -54 40 0 23 38 28 58 8z m4727 -63 c29 -28 31 -38 11 -55
-21 -16 -56 -9 -72 15 -12 18 -11 24 2 43 19 28 29 28 59 -3z m1535 11 c69
-11 75 -13 78 -37 2 -18 -15 -53 -57 -115 -94 -140 -139 -180 -155 -138 -8 21
-8 289 1 297 9 9 45 8 133 -7z m-1203 -48 c29 -37 20 -211 -16 -328 -22 -71
-79 -170 -98 -170 -22 0 -15 38 23 123 52 115 64 174 57 272 -6 83 -2 115 15
115 5 0 14 -6 19 -12z m-4255 -85 c24 -54 36 -177 19 -188 -7 -4 -15 -5 -18
-2 -6 7 -43 202 -43 230 0 29 20 9 42 -40z m4528 -21 c13 -49 13 -173 -1 -247
-20 -110 -91 -217 -122 -186 -7 7 -6 36 6 98 9 49 23 140 31 203 8 64 18 124
22 135 19 54 48 53 64 -3z m-5305 -63 c141 -77 164 -94 147 -111 -10 -10 -23
-7 -70 16 -133 65 -277 160 -267 176 7 12 57 -9 190 -81z m5810 1 c142 -47
152 -55 131 -122 -40 -125 -60 -141 -112 -87 -39 41 -91 72 -109 65 -11 -4
-15 -23 -15 -76 0 -66 -2 -71 -25 -80 -26 -10 -55 -4 -66 13 -4 5 6 48 23 95
33 96 33 122 1 138 -87 42 -83 112 4 100 23 -3 99 -24 168 -46z m-1385 -13 c0
-43 -25 -146 -39 -160 -19 -19 -24 21 -12 95 13 77 27 112 42 103 5 -4 9 -21
9 -38z m380 -12 c0 -40 -21 -99 -40 -110 -19 -12 -31 16 -24 55 14 82 64 125
64 55z m-262 -36 c4 -46 -19 -114 -38 -114 -12 0 -15 12 -14 50 3 93 45 145
52 64z m120 -13 c4 -45 -38 -196 -72 -264 -26 -52 -82 -112 -103 -112 -24 0
-14 34 41 140 30 58 66 145 81 193 28 93 48 109 53 43z m-5497 14 c19 -16 21
-21 10 -29 -26 -17 -81 15 -66 39 10 16 30 12 56 -10z m4037 -98 c3 -22 -107
-319 -133 -359 -25 -37 -38 -29 -31 18 15 91 96 316 129 357 14 17 31 10 35
-16z m-2370 -41 c8 -55 -24 -95 -54 -70 -16 13 -11 39 13 77 17 28 37 24 41
-7z m4292 7 c0 -27 -31 -113 -55 -155 -42 -70 -116 -72 -80 -2 56 110 135 202
135 157z m-2620 -41 c0 -34 -50 -269 -69 -321 -40 -115 -79 -139 -67 -42 7 65
82 323 102 354 16 24 34 29 34 9z m1864 -6 c17 -27 -71 -221 -99 -221 -22 0
-18 33 11 103 44 105 73 143 88 118z m-142 -37 c8 -8 -19 -119 -38 -157 -23
-45 -54 -77 -76 -77 -27 0 -22 22 23 112 61 121 74 139 91 122z m484 -48 c-23
-42 -73 -92 -83 -82 -9 8 30 85 59 116 31 33 48 10 24 -34z m-3905 2 c10 -144
-44 -395 -87 -412 -39 -15 -44 20 -13 91 15 34 68 299 69 341 0 1 7 2 15 2 8
0 16 -10 16 -22z m2769 2 c0 -35 -111 -230 -131 -230 -18 0 -8 37 32 115 65
125 99 165 99 115z m320 -53 c-30 -79 -80 -152 -105 -152 -30 0 -22 33 26 112
76 125 119 147 79 40z m200 35 c0 -35 -42 -121 -74 -151 -26 -24 -46 -21 -46
7 0 21 54 129 77 154 24 27 43 22 43 -10z m3596 14 c13 -33 -112 -220 -179
-270 -19 -14 -30 -17 -38 -9 -14 14 4 50 84 166 76 112 119 148 133 113z
m-8312 -12 c18 -17 20 -30 8 -38 -13 -8 -74 33 -67 44 9 15 42 12 59 -6z
m8012 -7 c3 -8 -4 -35 -16 -61 -24 -57 -25 -91 -5 -139 22 -52 19 -75 -13
-107 -37 -37 -158 -75 -207 -66 -23 5 -59 28 -102 67 -79 70 -134 99 -188 99
-30 0 -46 -8 -81 -40 -48 -44 -64 -49 -64 -22 0 27 63 104 129 158 93 77 112
77 195 5 75 -65 117 -56 250 54 81 68 93 74 102 52z m-4392 -43 c7 -19 -16
-136 -38 -187 -14 -35 -38 -48 -51 -28 -5 9 40 181 57 214 11 21 24 22 32 1z
m666 1 c0 -18 -44 -107 -72 -147 -21 -30 -48 -37 -48 -13 0 21 31 80 69 133
32 43 51 53 51 27z m-4072 -69 c163 -82 282 -154 282 -172 0 -26 -42 -10 -185
68 -167 91 -268 156 -260 168 7 12 27 4 163 -64z m3808 -2 c-37 -80 -76 -121
-76 -79 0 19 47 114 68 138 31 35 35 1 8 -59z m-820 41 c6 -15 -15 -88 -48
-167 -20 -48 -48 -65 -48 -30 0 26 37 167 50 192 13 23 38 26 46 5z m724 -11
c0 -24 -19 -54 -35 -54 -18 0 -20 41 -3 58 17 17 38 15 38 -4z m-1503 -35 c1
-13 -17 -80 -40 -149 -36 -107 -45 -125 -65 -128 -13 -2 -24 3 -28 12 -8 21
31 187 56 236 31 61 73 77 77 29z m866 -2 c12 -31 -53 -174 -73 -162 -16 10
-11 41 16 110 25 62 46 81 57 52z m-343 -26 c0 -36 -26 -110 -47 -133 -36 -40
-45 20 -12 91 34 76 59 94 59 42z m-690 -33 c0 -79 -52 -218 -82 -218 -24 0
-24 6 17 137 24 76 40 113 50 113 10 0 15 -11 15 -32z m1220 -26 c0 -30 -16
-52 -37 -52 -15 0 -17 19 -3 54 13 36 40 34 40 -2z m-2383 -47 c-7 -44 -53
-145 -65 -145 -31 0 -15 75 30 144 29 45 42 46 35 1z m5158 1 c17 -13 17 -15
-10 -51 -45 -58 -237 -225 -260 -225 -11 0 -67 28 -125 61 -120 70 -218 117
-310 148 -75 25 -97 37 -87 47 12 12 345 31 568 33 158 1 209 -2 224 -13z
m-4562 -52 c-3 -48 -29 -118 -49 -135 -38 -31 -34 48 6 139 24 54 46 51 43 -4z
m121 -20 c-1 -63 -25 -124 -49 -124 -27 0 -22 79 9 155 23 54 41 40 40 -31z
m669 16 c-1 -38 -25 -65 -47 -57 -21 8 -20 25 4 65 25 41 46 37 43 -8z m105
-3 c2 -18 -1 -27 -11 -27 -18 0 -29 24 -20 45 8 23 28 12 31 -18z m2823 -43
c95 -17 159 -48 140 -67 -8 -8 -39 -6 -118 7 -60 10 -140 20 -179 23 -104 8
-239 -28 -152 -41 200 -29 261 -41 317 -63 36 -13 95 -33 130 -44 102 -30 221
-98 221 -126 0 -22 -41 -14 -125 23 -260 115 -534 174 -698 150 -68 -10 -58
-26 17 -26 112 0 374 -54 581 -120 120 -39 175 -65 175 -85 0 -24 -45 -18
-201 25 -194 53 -297 70 -469 77 -133 6 -144 5 -132 -10 20 -23 10 -33 -76
-76 -89 -45 -167 -101 -270 -195 -70 -64 -112 -83 -112 -51 0 8 20 53 45 98
25 46 45 86 45 90 0 3 -10 7 -22 9 -20 3 -23 8 -20 41 2 20 0 37 -4 37 -5 0
-32 -23 -61 -52 -29 -28 -56 -48 -60 -44 -12 12 57 132 112 193 113 127 291
207 550 247 55 8 278 -4 366 -20z m314 -181 c52 -26 73 -53 40 -53 -32 0 -115
52 -115 72 0 14 17 9 75 -19z m1742 -59 c113 -88 193 -134 331 -192 160 -67
287 -147 361 -227 54 -60 87 -140 111 -275 15 -83 8 -116 -42 -190 -46 -70
-83 -99 -101 -81 -13 13 -7 37 38 160 16 44 24 83 21 97 -10 40 -23 27 -36
-38 -27 -142 -69 -159 -80 -33 l-5 60 -54 5 c-41 5 -58 11 -70 29 -63 90 -135
146 -296 231 -146 78 -232 139 -302 214 -62 66 -79 103 -71 157 2 16 11 25 27
27 18 3 38 -10 82 -54 32 -32 61 -55 64 -52 4 3 -14 45 -39 92 -66 126 -44
152 61 70z m-2179 -145 c63 -16 139 -41 170 -57 71 -34 78 -59 30 -95 -48 -37
-223 -127 -383 -198 -158 -69 -540 -219 -560 -219 -22 0 -29 20 -27 78 3 112
63 252 136 320 67 62 292 176 396 202 46 11 101 4 238 -31z m304 -6 c35 -32
14 -65 -28 -42 -23 12 -32 38 -17 52 11 11 25 8 45 -10z m-1362 -150 c0 -41
-51 -357 -61 -375 -6 -10 -16 -17 -22 -15 -30 10 1 268 43 365 19 43 40 56 40
25z m2050 -284 c7 -11 9 -28 6 -36 -6 -14 -9 -14 -26 2 -23 21 -27 55 -5 55 8
0 19 -9 25 -21z m-1930 -127 c0 -58 -26 -104 -69 -122 -45 -18 -58 -3 -35 41
32 63 87 139 95 133 5 -3 9 -26 9 -52z m2008 6 c13 -13 17 -58 5 -58 -14 0
-43 34 -43 52 0 20 20 24 38 6z m-146 -90 c8 -7 43 -50 78 -95 34 -46 66 -83
71 -83 5 0 9 11 9 25 0 14 4 25 8 25 4 0 23 -11 42 -25 19 -14 35 -25 36 -25
2 0 -3 19 -11 41 -8 23 -15 48 -15 55 0 26 36 14 71 -22 57 -59 161 -140 234
-183 88 -52 166 -81 335 -127 135 -36 180 -53 213 -82 15 -13 50 -14 270 -9
139 4 258 3 266 -2 33 -21 -38 -31 -296 -41 -313 -12 -366 -17 -339 -32 13 -7
100 -8 265 -4 259 8 371 2 371 -19 0 -16 -68 -25 -200 -25 -178 0 -470 -13
-465 -20 3 -4 37 -10 77 -14 113 -10 158 -18 158 -26 0 -13 -220 -18 -408 -10
-173 8 -185 10 -245 38 -115 55 -289 213 -407 371 -27 36 -72 109 -99 162 -60
114 -68 166 -19 127z m-4655 -93 c66 -33 154 -43 500 -55 416 -14 495 -22 469
-47 -4 -4 -211 -8 -459 -7 -479 0 -589 9 -675 51 -45 22 -56 58 -20 72 46 19
133 12 185 -14z m1951 -141 c32 -4 52 -12 52 -20 0 -16 -75 -32 -215 -46 -163
-15 -345 2 -345 33 0 5 0 12 -1 17 0 4 10 10 23 14 30 8 418 10 486 2z m-854
-50 c31 -5 43 -10 34 -15 -18 -12 -355 -11 -363 0 -3 5 7 12 22 14 47 7 257 7
307 1z m2171 -148 c28 -42 -2 -114 -56 -136 -27 -11 -34 -10 -59 9 -17 12 -44
24 -62 27 -94 16 -99 23 -36 55 57 29 159 68 180 69 10 0 25 -11 33 -24z
m-187 -203 c-7 -37 -166 -73 -419 -94 -153 -12 -219 -8 -219 16 0 15 47 27
230 55 203 32 251 37 333 39 69 1 78 -1 75 -16z m2768 -124 c7 -12 -13 -29
-36 -29 -23 0 -43 17 -36 29 9 14 63 14 72 0z"/>
<path d="M5590 7874 c-78 -25 -387 -101 -585 -143 -345 -75 -355 -79 -341
-134 11 -44 49 -59 240 -95 99 -18 323 -64 496 -102 342 -75 488 -102 495 -90
10 16 -421 123 -743 185 -103 19 -213 41 -245 47 -68 13 -121 45 -125 75 -4
27 8 31 282 88 233 48 542 125 600 149 77 32 15 49 -74 20z"/>
<path d="M7588 7018 c9 -9 15 -9 24 0 9 9 7 12 -12 12 -19 0 -21 -3 -12 -12z"/>
<path d="M4093 7068 c-37 -47 -39 -98 -3 -98 26 0 62 49 58 79 -3 29 -38 41
-55 19z"/>
<path d="M4300 6965 c0 -39 3 -46 18 -43 13 2 17 13 17 43 0 30 -4 41 -17 43
-15 3 -18 -4 -18 -43z"/>
<path d="M5280 6791 c-16 -30 -12 -107 6 -125 32 -32 44 -13 44 68 0 68 -27
99 -50 57z"/>
<path d="M6606 6532 c-16 -18 -36 -73 -36 -99 0 -25 32 -43 75 -43 73 0 91 15
60 50 -8 9 -25 36 -38 60 -27 51 -38 57 -61 32z"/>
<path d="M6811 6499 c-27 -47 -33 -115 -12 -129 21 -12 38 -2 50 30 19 55 94
48 131 -12 11 -18 20 -27 20 -20 0 33 -122 172 -150 172 -9 0 -27 -19 -39 -41z"/>
<path d="M7192 6314 c-17 -12 -21 -19 -13 -27 8 -8 16 -7 27 5 25 25 14 42
-14 22z"/>
<path d="M3960 6483 c0 -17 21 -22 274 -59 309 -45 369 -55 671 -114 320 -63
448 -84 725 -115 124 -15 284 -35 355 -45 143 -22 204 -25 189 -11 -19 19
-303 67 -691 116 -207 26 -466 69 -773 130 -412 81 -750 125 -750 98z"/>
<path d="M4238 6303 c6 -2 18 -2 25 0 6 3 1 5 -13 5 -14 0 -19 -2 -12 -5z"/>
<path d="M4298 6293 c7 -3 16 -2 19 1 4 3 -2 6 -13 5 -11 0 -14 -3 -6 -6z"/>
<path d="M4700 6220 c8 -5 31 -9 50 -9 29 0 31 2 15 9 -11 5 -33 9 -50 9 -23
1 -26 -2 -15 -9z"/>
<path d="M4353 5554 c-28 -12 -10 -25 30 -22 23 2 42 8 42 13 0 11 -52 17 -72
9z"/>
<path d="M6380 4388 c0 -19 18 -43 25 -36 9 9 -4 48 -16 48 -5 0 -9 -6 -9 -12z"/>
<path d="M3085 4711 c-7 -12 6 -16 160 -43 120 -21 157 -23 475 -22 609 2 644
27 60 44 -201 5 -405 14 -455 20 -114 12 -232 13 -240 1z"/>
<path d="M5494 2386 c-8 -21 -1 -49 14 -54 8 -2 12 8 12 32 0 36 -16 49 -26
22z"/>
<path d="M5397 2364 c-9 -10 2 -24 19 -24 8 0 14 7 14 15 0 15 -21 21 -33 9z"/>
<path d="M10976 11039 c32 -34 84 -65 84 -50 0 12 -88 81 -103 81 -6 0 2 -14
19 -31z"/>
<path d="M9290 10457 c0 -34 228 -117 284 -103 54 13 18 44 -96 82 -96 33
-188 43 -188 21z"/>
<path d="M3025 10264 c-121 -10 -369 -36 -470 -50 -167 -23 -417 -98 -693
-209 -147 -59 -165 -105 -55 -144 71 -26 84 -33 97 -54 16 -25 -17 -51 -99
-77 -160 -51 -440 -220 -440 -265 0 -46 92 -28 345 68 345 131 1047 328 1273
357 75 9 167 1 232 -20 49 -16 61 -9 68 40 3 22 11 48 18 56 56 68 353 122
596 110 134 -7 134 -7 131 15 -2 18 -15 25 -73 39 -38 9 -117 35 -175 57 -166
65 -224 75 -480 78 -124 1 -247 1 -275 -1z m370 -44 c10 -17 -13 -38 -89 -82
-39 -23 -109 -69 -156 -103 -112 -82 -119 -85 -225 -105 -235 -46 -538 -132
-1008 -286 -191 -63 -357 -114 -368 -114 -71 0 62 81 253 154 122 47 162 73
166 110 5 37 -17 59 -84 86 -104 43 -73 68 196 154 319 103 611 166 778 169
112 2 127 -10 55 -46 -26 -14 -66 -39 -88 -57 -59 -46 -156 -142 -150 -148 3
-3 31 13 63 36 87 63 238 152 322 189 142 62 147 36 15 -79 -52 -45 -95 -86
-95 -91 0 -10 2 -9 115 67 82 55 267 156 286 156 4 0 11 -5 14 -10z m244 -30
c90 -22 120 -34 108 -46 -3 -4 -59 -15 -124 -25 -65 -10 -154 -29 -198 -43
-79 -26 -103 -38 -201 -104 -53 -36 -119 -42 -119 -12 0 34 365 242 439 249 5
1 47 -8 95 -19z"/>
<path d="M10230 10129 c0 -15 361 -374 449 -447 131 -109 68 -33 -164 197
-231 230 -285 277 -285 250z"/>
<path d="M10432 10131 c2 -5 23 -24 48 -43 25 -19 132 -128 239 -243 376 -408
424 -453 292 -280 -151 200 -384 456 -483 530 -54 40 -105 60 -96 36z"/>
<path d="M1227 6933 c-39 -68 -88 -589 -86 -913 2 -221 12 -142 28 220 13 269
30 456 56 598 15 83 16 119 2 95z"/>
<path d="M863 6376 c-13 -99 -49 -175 -120 -257 -119 -137 -310 -274 -358
-255 -22 8 -18 44 5 51 11 3 21 14 21 23 2 33 -3 57 -15 65 -6 5 -75 5 -153 2
-161 -7 -173 -2 -122 51 87 90 519 331 642 358 43 10 27 32 -19 28 -80 -7
-349 -129 -504 -229 -112 -73 -174 -126 -211 -180 -30 -43 -30 -45 -12 -65 17
-19 25 -20 155 -13 152 8 156 6 114 -49 -37 -49 -40 -72 -15 -97 19 -19 29
-21 89 -16 37 3 84 12 104 21 98 41 341 267 389 362 30 60 67 177 67 213 0 16
-10 37 -23 49 l-23 21 -11 -83z"/>
<path d="M12151 3996 c-64 -138 -141 -313 -141 -320 0 -3 14 -6 30 -6 20 0 30
-5 30 -15 0 -25 19 -17 35 16 18 35 13 48 -10 29 -9 -7 -19 -10 -22 -6 -9 9 5
56 72 229 31 82 54 151 51 154 -3 3 -24 -33 -45 -81z"/>
<path d="M11986 3518 c-3 -13 -7 -36 -10 -53 -2 -16 -8 -39 -12 -49 -5 -14 -4
-17 5 -11 14 8 61 102 61 123 0 22 -39 13 -44 -10z"/>
<path d="M2040 2740 c0 -6 271 -283 603 -614 556 -556 823 -813 835 -801 9 9
-160 181 -713 726 -582 574 -725 710 -725 689z"/>
<path d="M2420 2506 c52 -55 526 -508 740 -706 392 -364 543 -494 768 -663 7
-6 12 -6 12 1 0 21 -98 118 -269 266 -190 165 -564 499 -891 795 -340 309
-448 401 -360 307z"/>
<path d="M11094 2237 c-91 -110 -213 -273 -255 -343 -31 -51 -79 -165 -79
-189 0 -17 25 4 82 73 36 43 121 141 189 218 141 158 193 223 187 229 -3 3
-59 -47 -125 -110 -67 -63 -124 -115 -127 -115 -20 0 3 42 72 132 102 136 125
168 120 173 -2 2 -31 -28 -64 -68z"/>
<path d="M5630 1499 c0 -15 5 -20 22 -17 34 5 37 38 4 38 -20 0 -26 -5 -26
-21z"/>
<path d="M9727 1071 c-187 -97 -527 -295 -527 -307 0 -9 83 32 289 143 248
134 361 201 361 214 0 14 -3 13 -123 -50z"/>
<path d="M9475 1071 c-152 -81 -279 -160 -271 -169 10 -10 376 198 376 214 0
9 -20 1 -105 -45z"/>
<path d="M9815 990 c-8 -13 20 -24 41 -16 20 8 9 26 -16 26 -10 0 -22 -5 -25
-10z"/>
</g>
</svg>
